HIERARCHY
ROOT mixamorig:Hips
{
	OFFSET -0.000008 104.274872 1.554316
	CHANNELS 6 Xposition Yposition Zposition Xrotation Yrotation Zrotation
	JOINT mixamorig:Spine
	{
		OFFSET -0.000005 10.181595 0.131519
		CHANNELS 6 Xposition Yposition Zposition Xrotation Yrotation Zrotation
		JOINT mixamorig:Spine1
		{
			OFFSET -0.000000 9.893959 -1.470707
			CHANNELS 6 Xposition Yposition Zposition Xrotation Yrotation Zrotation
			JOINT mixamorig:Spine2
			{
				OFFSET -0.000000 9.220757 -1.370641
				CHANNELS 6 Xposition Yposition Zposition Xrotation Yrotation Zrotation
				JOINT mixamorig:Neck
				{
					OFFSET 0.000001 16.740417 -2.049036
					CHANNELS 6 Xposition Yposition Zposition Xrotation Yrotation Zrotation
					JOINT mixamorig:Head
					{
						OFFSET 0.000000 9.617874 1.685006
						CHANNELS 6 Xposition Yposition Zposition Xrotation Yrotation Zrotation
						JOINT mixamorig:HeadTop_End
						{
							OFFSET 0.000002 22.037354 7.501101
							CHANNELS 6 Xposition Yposition Zposition Xrotation Yrotation Zrotation
							End Site
							{
								OFFSET 0.000168 2310.654297 -282.823242
							}
						}
					}
				}
				JOINT mixamorig:RightShoulder
				{
					OFFSET -4.569970 11.014908 -2.160885
					CHANNELS 6 Xposition Yposition Zposition Xrotation Yrotation Zrotation
					JOINT mixamorig:RightArm
					{
						OFFSET -10.592851 -0.524811 -2.232101
						CHANNELS 6 Xposition Yposition Zposition Xrotation Yrotation Zrotation
						JOINT mixamorig:RightForeArm
						{
							OFFSET -27.841511 0.000031 -0.000004
							CHANNELS 6 Xposition Yposition Zposition Xrotation Yrotation Zrotation
							JOINT mixamorig:RightHand
							{
								OFFSET -28.328831 -0.000015 0.000015
								CHANNELS 6 Xposition Yposition Zposition Xrotation Yrotation Zrotation
								JOINT mixamorig:RightHandThumb1
								{
									OFFSET -2.464806 -1.573990 2.681852
									CHANNELS 6 Xposition Yposition Zposition Xrotation Yrotation Zrotation
									JOINT mixamorig:RightHandThumb2
									{
										OFFSET -3.215179 -1.872803 1.924282
										CHANNELS 6 Xposition Yposition Zposition Xrotation Yrotation Zrotation
										JOINT mixamorig:RightHandThumb3
										{
											OFFSET -2.654831 -1.527969 1.512609
											CHANNELS 6 Xposition Yposition Zposition Xrotation Yrotation Zrotation
											JOINT mixamorig:RightHandThumb4
											{
												OFFSET -2.018814 -1.152008 1.108052
												CHANNELS 6 Xposition Yposition Zposition Xrotation Yrotation Zrotation
												End Site
												{
													OFFSET -188.809540 -114.533607 132.431396
												}
											}
										}
									}
								}
								JOINT mixamorig:RightHandIndex1
								{
									OFFSET -9.108284 -0.517868 2.259835
									CHANNELS 6 Xposition Yposition Zposition Xrotation Yrotation Zrotation
									JOINT mixamorig:RightHandIndex2
									{
										OFFSET -3.699989 0.000000 0.001215
										CHANNELS 6 Xposition Yposition Zposition Xrotation Yrotation Zrotation
										JOINT mixamorig:RightHandIndex3
										{
											OFFSET -2.850006 0.000031 -0.000522
											CHANNELS 6 Xposition Yposition Zposition Xrotation Yrotation Zrotation
											JOINT mixamorig:RightHandIndex4
											{
												OFFSET -2.772186 -0.000015 -0.000020
												CHANNELS 6 Xposition Yposition Zposition Xrotation Yrotation Zrotation
												End Site
												{
													OFFSET -277.218445 0.000000 -0.050231
												}
											}
										}
									}
								}
								JOINT mixamorig:RightHandMiddle1
								{
									OFFSET -9.532516 -0.000031 -0.000023
									CHANNELS 6 Xposition Yposition Zposition Xrotation Yrotation Zrotation
									JOINT mixamorig:RightHandMiddle2
									{
										OFFSET -3.700005 -0.000015 0.003713
										CHANNELS 6 Xposition Yposition Zposition Xrotation Yrotation Zrotation
										JOINT mixamorig:RightHandMiddle3
										{
											OFFSET -2.949974 0.000015 -0.002054
											CHANNELS 6 Xposition Yposition Zposition Xrotation Yrotation Zrotation
											JOINT mixamorig:RightHandMiddle4
											{
												OFFSET -2.946640 0.000000 -0.000156
												CHANNELS 6 Xposition Yposition Zposition Xrotation Yrotation Zrotation
												End Site
												{
													OFFSET -294.664337 0.000000 -0.113670
												}
											}
										}
									}
								}
								JOINT mixamorig:RightHandRing1
								{
									OFFSET -9.103600 -0.043076 -1.865134
									CHANNELS 6 Xposition Yposition Zposition Xrotation Yrotation Zrotation
									JOINT mixamorig:RightHandRing2
									{
										OFFSET -3.379288 0.000000 -0.001055
										CHANNELS 6 Xposition Yposition Zposition Xrotation Yrotation Zrotation
										JOINT mixamorig:RightHandRing3
										{
											OFFSET -2.889687 -0.000015 0.000379
											CHANNELS 6 Xposition Yposition Zposition Xrotation Yrotation Zrotation
											JOINT mixamorig:RightHandRing4
											{
												OFFSET -2.638809 -0.000015 0.000941
												CHANNELS 6 Xposition Yposition Zposition Xrotation Yrotation Zrotation
												End Site
												{
													OFFSET -263.880371 0.000000 0.516020
												}
											}
										}
									}
								}
								JOINT mixamorig:RightHandPinky1
								{
									OFFSET -8.076683 -0.486710 -3.806280
									CHANNELS 6 Xposition Yposition Zposition Xrotation Yrotation Zrotation
									JOINT mixamorig:RightHandPinky2
									{
										OFFSET -3.600014 -0.000015 -0.003747
										CHANNELS 6 Xposition Yposition Zposition Xrotation Yrotation Zrotation
										JOINT mixamorig:RightHandPinky3
										{
											OFFSET -2.099983 0.000000 -0.005739
											CHANNELS 6 Xposition Yposition Zposition Xrotation Yrotation Zrotation
											JOINT mixamorig:RightHandPinky4
											{
												OFFSET -2.115768 -0.000031 -0.003680
												CHANNELS 6 Xposition Yposition Zposition Xrotation Yrotation Zrotation
												End Site
												{
													OFFSET -211.577087 0.000000 -0.350686
												}
											}
										}
									}
								}
							}
						}
					}
				}
				JOINT mixamorig:LeftShoulder
				{
					OFFSET 4.570447 11.014725 -2.160855
					CHANNELS 6 Xposition Yposition Zposition Xrotation Yrotation Zrotation
					JOINT mixamorig:LeftArm
					{
						OFFSET 10.592371 -0.524597 -2.232119
						CHANNELS 6 Xposition Yposition Zposition Xrotation Yrotation Zrotation
						JOINT mixamorig:LeftForeArm
						{
							OFFSET 27.841532 -0.000031 0.000026
							CHANNELS 6 Xposition Yposition Zposition Xrotation Yrotation Zrotation
							JOINT mixamorig:LeftHand
							{
								OFFSET 28.328846 -0.000061 0.000022
								CHANNELS 6 Xposition Yposition Zposition Xrotation Yrotation Zrotation
								JOINT mixamorig:LeftHandThumb1
								{
									OFFSET 2.466141 -1.576172 2.681732
									CHANNELS 6 Xposition Yposition Zposition Xrotation Yrotation Zrotation
									JOINT mixamorig:LeftHandThumb2
									{
										OFFSET 3.217812 -1.872070 1.916482
										CHANNELS 6 Xposition Yposition Zposition Xrotation Yrotation Zrotation
										JOINT mixamorig:LeftHandThumb3
										{
											OFFSET 2.656029 -1.528778 1.514513
											CHANNELS 6 Xposition Yposition Zposition Xrotation Yrotation Zrotation
											JOINT mixamorig:LeftHandThumb4
											{
												OFFSET 2.020889 -1.154053 1.115139
												CHANNELS 6 Xposition Yposition Zposition Xrotation Yrotation Zrotation
												End Site
												{
													OFFSET 190.885437 -115.081749 130.048782
												}
											}
										}
									}
								}
								JOINT mixamorig:LeftHandIndex1
								{
									OFFSET 9.109314 -0.518021 2.259871
									CHANNELS 6 Xposition Yposition Zposition Xrotation Yrotation Zrotation
									JOINT mixamorig:LeftHandIndex2
									{
										OFFSET 3.699989 0.000000 -0.000322
										CHANNELS 6 Xposition Yposition Zposition Xrotation Yrotation Zrotation
										JOINT mixamorig:LeftHandIndex3
										{
											OFFSET 2.850006 0.000000 0.000352
											CHANNELS 6 Xposition Yposition Zposition Xrotation Yrotation Zrotation
											JOINT mixamorig:LeftHandIndex4
											{
												OFFSET 2.774864 -0.000031 -0.000027
												CHANNELS 6 Xposition Yposition Zposition Xrotation Yrotation Zrotation
												End Site
												{
													OFFSET 277.486267 0.000000 -0.009857
												}
											}
										}
									}
								}
								JOINT mixamorig:LeftHandMiddle1
								{
									OFFSET 9.533394 0.000061 0.000044
									CHANNELS 6 Xposition Yposition Zposition Xrotation Yrotation Zrotation
									JOINT mixamorig:LeftHandMiddle2
									{
										OFFSET 3.699989 -0.000015 -0.000231
										CHANNELS 6 Xposition Yposition Zposition Xrotation Yrotation Zrotation
										JOINT mixamorig:LeftHandMiddle3
										{
											OFFSET 2.949997 -0.000015 -0.000059
											CHANNELS 6 Xposition Yposition Zposition Xrotation Yrotation Zrotation
											JOINT mixamorig:LeftHandMiddle4
											{
												OFFSET 2.952896 0.000031 0.000063
												CHANNELS 6 Xposition Yposition Zposition Xrotation Yrotation Zrotation
												End Site
												{
													OFFSET 295.289337 0.000000 0.022810
												}
											}
										}
									}
								}
								JOINT mixamorig:LeftHandRing1
								{
									OFFSET 9.104523 -0.042999 -1.865074
									CHANNELS 6 Xposition Yposition Zposition Xrotation Yrotation Zrotation
									JOINT mixamorig:LeftHandRing2
									{
										OFFSET 3.150009 -0.000031 0.000043
										CHANNELS 6 Xposition Yposition Zposition Xrotation Yrotation Zrotation
										JOINT mixamorig:LeftHandRing3
										{
											OFFSET 2.949982 -0.000015 0.000040
											CHANNELS 6 Xposition Yposition Zposition Xrotation Yrotation Zrotation
											JOINT mixamorig:LeftHandRing4
											{
												OFFSET 2.644348 0.000000 0.000057
												CHANNELS 6 Xposition Yposition Zposition Xrotation Yrotation Zrotation
												End Site
												{
													OFFSET 264.434631 0.000000 0.012105
												}
											}
										}
									}
								}
								JOINT mixamorig:LeftHandPinky1
								{
									OFFSET 8.077789 -0.486847 -3.806259
									CHANNELS 6 Xposition Yposition Zposition Xrotation Yrotation Zrotation
									JOINT mixamorig:LeftHandPinky2
									{
										OFFSET 3.599953 0.000031 0.014727
										CHANNELS 6 Xposition Yposition Zposition Xrotation Yrotation Zrotation
										JOINT mixamorig:LeftHandPinky3
										{
											OFFSET 2.100021 0.000015 0.007705
											CHANNELS 6 Xposition Yposition Zposition Xrotation Yrotation Zrotation
											JOINT mixamorig:LeftHandPinky4
											{
												OFFSET 2.125504 0.000031 0.007517
												CHANNELS 6 Xposition Yposition Zposition Xrotation Yrotation Zrotation
												End Site
												{
													OFFSET 212.550781 0.000000 0.625752
												}
											}
										}
									}
								}
							}
						}
					}
				}
			}
		}
	}
	JOINT mixamorig:RightUpLeg
	{
		OFFSET -8.207787 -6.751648 -1.599560
		CHANNELS 6 Xposition Yposition Zposition Xrotation Yrotation Zrotation
		JOINT mixamorig:RightLeg
		{
			OFFSET -0.000002 -44.370117 0.345942
			CHANNELS 6 Xposition Yposition Zposition Xrotation Yrotation Zrotation
			JOINT mixamorig:RightFoot
			{
				OFFSET 0.000003 -44.423679 -3.043532
				CHANNELS 6 Xposition Yposition Zposition Xrotation Yrotation Zrotation
				JOINT mixamorig:RightToeBase
				{
					OFFSET -0.000002 -8.728671 10.710558
					CHANNELS 6 Xposition Yposition Zposition Xrotation Yrotation Zrotation
					JOINT mixamorig:RightToe_End
					{
						OFFSET -0.000001 -0.000679 9.278119
						CHANNELS 6 Xposition Yposition Zposition Xrotation Yrotation Zrotation
						End Site
						{
							OFFSET 0.000000 -0.067690 927.812134
						}
					}
				}
			}
		}
	}
	JOINT mixamorig:LeftUpLeg
	{
		OFFSET 8.207793 -6.751686 -1.599556
		CHANNELS 6 Xposition Yposition Zposition Xrotation Yrotation Zrotation
		JOINT mixamorig:LeftLeg
		{
			OFFSET -0.000004 -44.370014 0.346954
			CHANNELS 6 Xposition Yposition Zposition Xrotation Yrotation Zrotation
			JOINT mixamorig:LeftFoot
			{
				OFFSET -0.000001 -44.423672 -3.044401
				CHANNELS 6 Xposition Yposition Zposition Xrotation Yrotation Zrotation
				JOINT mixamorig:LeftToeBase
				{
					OFFSET -0.000002 -8.728669 10.710558
					CHANNELS 6 Xposition Yposition Zposition Xrotation Yrotation Zrotation
					JOINT mixamorig:LeftToe_End
					{
						OFFSET -0.000003 -0.000679 9.278133
						CHANNELS 6 Xposition Yposition Zposition Xrotation Yrotation Zrotation
						End Site
						{
							OFFSET 0.000000 -0.068021 927.813477
						}
					}
				}
			}
		}
	}
}
MOTION
Frames: 3
Frame Time: 0.033333
0.000006 104.270477 1.554256 0.000010 0.000003 -0.000113 -0.000005 10.181587 0.131522 0.000001 -0.000003 0.000084 -0.000000 9.893967 -1.470711 0.000001 0.000000 -0.000000 -0.000000 9.220802 -1.370642 0.000000 -0.000000 -0.000000 0.000001 16.740433 -2.049030 0.000000 -0.000000 -0.000000 0.000000 9.617859 1.685014 0.000000 0.000000 0.000000 0.000002 22.037384 7.501101 0.000000 -0.000000 0.000000 -4.569968 11.014880 -2.160881 0.000008 0.000001 -0.000038 -10.592876 -0.524743 -2.231933 76.009576 24.595177 -19.334278 -27.841522 -0.000002 0.000552 -56.663120 111.234596 76.470962 -28.328827 0.000008 0.000030 -0.000321 -0.000044 0.000006 -2.464460 -1.574001 2.682396 -18.904321 -152.194797 46.286724 -3.215275 -1.872573 1.924652 157.523956 33.337364 11.116462 -2.654957 -1.527918 1.513101 154.686504 24.527365 -42.258701 -2.018826 -1.152016 1.108057 -0.000006 0.000000 0.000002 -9.108407 -0.517575 2.260155 103.257803 20.228778 -25.453958 -3.700088 0.000312 0.001520 98.239574 15.125872 -17.412601 -2.850085 0.000360 -0.000261 96.027330 12.019407 -13.342822 -2.772157 -0.000002 -0.000023 -0.000000 0.000000 0.000000 -9.532592 0.000269 0.000230 88.848098 16.249380 -16.070054 -3.700052 0.000351 0.003953 90.345535 10.910677 -10.882357 -2.950066 0.000342 -0.001835 90.003882 10.765355 -10.759041 -2.946628 0.000004 -0.000155 0.000002 0.000001 0.000001 -9.103692 -0.042769 -1.864885 87.922273 17.574500 -16.914419 -3.379309 0.000325 -0.000853 90.363751 7.628911 -7.694366 -2.889734 0.000346 0.000606 92.056552 5.006642 -5.235328 -2.638810 -0.000009 0.000940 -0.000001 0.000001 -0.000003 -8.076741 -0.486392 -3.806056 82.568135 15.816421 -13.776004 -3.600035 0.000286 -0.003538 85.585487 5.659458 -4.923388 -2.100022 0.000320 -0.005514 86.038725 3.752900 -3.303010 -2.115774 -0.000059 -0.003679 -0.000005 -0.000001 -0.000004 4.570446 11.014691 -2.160851 -0.000018 0.000010 -0.000021 10.592400 -0.524476 -2.232369 73.411044 -13.163706 9.833188 27.841831 0.000080 -0.000181 100.894031 -70.249131 80.845548 28.328831 -0.000029 0.000022 0.000024 -0.000090 0.000000 2.466040 -1.576185 2.681907 -31.072511 154.180988 -24.650115 3.217773 -1.871707 1.916379 158.854723 -32.464825 -5.430950 2.656112 -1.528647 1.514491 144.388860 -26.218796 51.045484 2.020884 -1.154065 1.115145 0.000003 0.000004 -0.000001 9.109381 -0.517849 2.259745 88.800307 -16.621279 16.269318 3.700041 0.000159 -0.000442 83.682330 -17.830808 16.007129 2.850061 0.000173 0.000218 83.730510 -15.788846 14.165639 2.774869 -0.000031 -0.000025 -0.000003 -0.000000 -0.000002 9.533469 0.000214 -0.000099 87.486691 -15.807942 15.128866 3.700046 0.000176 -0.000369 88.056998 -15.023909 14.525645 2.950070 0.000161 -0.000194 89.706598 -18.563944 18.473862 2.952874 -0.000015 0.000060 0.000002 0.000000 -0.000000 9.104592 -0.042841 -1.865222 86.715132 -14.953065 14.129943 3.150054 0.000217 -0.000103 91.484408 -11.081681 11.372524 2.950052 0.000187 -0.000069 94.410112 -13.629043 14.711056 2.644318 0.000031 0.000059 -0.000002 -0.000001 -0.000000 8.077843 -0.486730 -3.806404 75.822210 -16.930753 13.688384 3.600003 0.000187 0.014566 77.958440 -11.736834 9.916346 2.100029 0.000188 0.007535 82.547911 -11.438584 10.469084 2.125496 -0.000029 0.007514 0.000000 -0.000002 0.000000 -8.207786 -6.751667 -1.599560 -0.077001 -0.000003 0.000080 -0.000002 -44.370110 0.345938 0.153719 -0.000000 -0.000000 0.000000 -44.423679 -3.043532 -0.076700 0.000000 -0.000002 -0.000006 -8.728667 10.710559 -0.000009 -0.000000 -0.000000 -0.000001 -0.000679 9.278123 0.000000 -0.000000 -0.000000 8.207792 -6.751710 -1.599556 -0.074518 -0.000003 0.000081 -0.000002 -44.370014 0.346960 0.148822 0.000002 0.000000 -0.000001 -44.423664 -3.044403 -0.074314 0.000000 -0.000002 -0.000004 -8.728671 10.710558 0.000007 -0.000000 -0.000000 0.000000 -0.000680 9.278137 -0.000000 0.000000 -0.000001 
0.000006 104.270477 1.554256 0.000010 0.000003 -0.000113 -0.000005 10.181587 0.131522 0.000001 -0.000003 0.000084 -0.000000 9.893967 -1.470711 0.000001 0.000000 -0.000000 -0.000000 9.220802 -1.370642 0.000000 -0.000000 -0.000000 0.000001 16.740433 -2.049030 0.000000 -0.000000 -0.000000 0.000000 9.617859 1.685014 0.000000 0.000000 0.000000 0.000002 22.037384 7.501101 0.000000 -0.000000 0.000000 -4.569968 11.014880 -2.160881 0.000008 0.000001 -0.000038 -10.592874 -0.524778 -2.231897 75.971395 31.823443 -25.100342 -27.841526 0.000030 0.000537 -56.216429 108.358076 73.004702 -28.328829 0.000004 0.000026 -0.000320 -0.000044 0.000004 -2.464414 -1.573868 2.682382 -37.721502 -157.095526 12.680723 -3.215269 -1.872535 1.924630 151.749591 33.103454 16.862781 -2.654954 -1.527868 1.513054 149.332934 27.461238 -28.251641 -2.018831 -1.151980 1.108057 -0.000003 -0.000002 0.000004 -9.108389 -0.517551 2.260139 100.863138 16.398804 -19.838952 -3.700064 0.000323 0.001520 98.477708 12.532067 -14.491522 -2.850078 0.000365 -0.000261 97.146750 10.076155 -11.409082 -2.772146 -0.000015 -0.000021 -0.000001 0.000001 -0.000001 -9.532593 0.000271 0.000230 89.851200 15.661745 -15.763112 -3.700084 0.000324 0.003950 92.016186 11.584680 -11.899288 -2.950052 0.000338 -0.001814 93.660417 11.330623 -12.065744 -2.946639 0.000001 -0.000153 -0.000002 -0.000001 -0.000000 -9.103708 -0.042764 -1.864882 87.652958 18.571733 -17.794857 -3.379332 0.000317 -0.000818 91.388908 9.763257 -10.019431 -2.889738 0.000358 0.000651 97.199760 6.274413 -7.166028 -2.638799 0.000001 0.000941 0.000002 -0.000002 0.000002 -8.076756 -0.486390 -3.806043 81.101530 18.173264 -15.452856 -3.600058 0.000279 -0.003534 85.252782 8.538138 -7.533094 -2.100012 0.000314 -0.005491 88.903498 5.213534 -4.900929 -2.115773 -0.000044 -0.003679 0.000002 0.000001 -0.000001 4.570446 11.014691 -2.160851 -0.000018 0.000010 -0.000021 10.592381 -0.524494 -2.232322 73.021511 -5.436749 4.026018 27.841829 0.000053 -0.000174 101.047793 -72.424252 83.274472 28.328838 -0.000028 0.000025 0.000021 -0.000089 0.000000 2.466153 -1.576131 2.681874 -9.694311 156.824190 -65.121742 3.217801 -1.871728 1.916381 164.247799 -31.112430 3.498728 2.656115 -1.528671 1.514489 143.695378 -25.751388 59.786968 2.020902 -1.154058 1.115142 0.000001 0.000003 0.000004 9.109397 -0.517858 2.259746 88.826296 -19.570027 19.168099 3.700044 0.000158 -0.000454 84.964787 -13.891782 12.747347 2.850063 0.000189 0.000199 83.762612 -10.886719 9.766289 2.774876 -0.000031 -0.000026 -0.000000 0.000000 0.000001 9.533476 0.000202 -0.000081 88.015266 -19.197490 18.546481 3.700037 0.000182 -0.000392 88.531560 -11.902006 11.600286 2.950040 0.000195 -0.000206 89.780801 -10.942793 10.904138 2.952856 -0.000016 0.000064 -0.000001 -0.000001 0.000001 9.104609 -0.042857 -1.865219 87.545724 -18.463017 17.703046 3.150044 0.000212 -0.000091 91.397254 -11.208378 11.485117 2.950008 0.000208 -0.000073 93.506581 -9.093916 9.667396 2.644325 0.000028 0.000061 -0.000003 -0.000001 0.000000 8.077858 -0.486717 -3.806398 80.404700 -18.509946 16.191727 3.599998 0.000176 0.014573 81.516908 -14.041669 12.562863 2.100024 0.000200 0.007537 84.628605 -9.803005 9.356382 2.125504 0.000001 0.007511 -0.000000 0.000000 -0.000000 -8.207786 -6.751667 -1.599560 -0.077001 -0.000003 0.000080 -0.000002 -44.370110 0.345938 0.153719 -0.000000 -0.000000 0.000000 -44.423679 -3.043532 -0.076700 0.000000 -0.000002 -0.000006 -8.728667 10.710559 -0.000009 -0.000000 -0.000000 -0.000001 -0.000679 9.278123 0.000000 -0.000000 -0.000000 8.207792 -6.751710 -1.599556 -0.074518 -0.000003 0.000081 -0.000002 -44.370014 0.346960 0.148822 0.000002 0.000000 -0.000001 -44.423664 -3.044403 -0.074314 0.000000 -0.000002 -0.000004 -8.728671 10.710558 0.000007 -0.000000 -0.000000 0.000000 -0.000680 9.278137 -0.000000 0.000000 -0.000001 
0.000006 104.270477 1.554256 0.000010 0.000003 -0.000113 -0.000005 10.181587 0.131522 0.000001 -0.000003 0.000084 -0.000000 9.893967 -1.470711 0.000001 0.000000 -0.000000 -0.000000 9.220802 -1.370642 0.000000 -0.000000 -0.000000 0.000001 16.740433 -2.049030 0.000000 -0.000000 -0.000000 0.000000 9.617859 1.685014 0.000000 0.000000 0.000000 0.000002 22.037384 7.501101 0.000000 -0.000000 0.000000 -4.569968 11.014880 -2.160881 0.000008 0.000001 -0.000038 -10.592856 -0.524801 -2.231843 75.756531 40.825028 -32.289429 -27.841536 0.000002 0.000571 -54.890231 104.301128 67.513538 -28.328835 0.000022 0.000030 -0.000317 -0.000049 0.000009 -2.464428 -1.573889 2.682378 -34.403345 -156.127879 19.376799 -3.215298 -1.872601 1.924654 155.167008 31.192805 0.911325 -2.654956 -1.527879 1.513069 147.099312 27.286751 -33.121647 -2.018811 -1.152022 1.108052 -0.000002 -0.000003 0.000002 -9.108375 -0.517539 2.260125 100.237097 16.628411 -19.896401 -3.700050 0.000323 0.001517 98.701124 12.052092 -13.991579 -2.850094 0.000377 -0.000249 97.177869 9.543091 -10.812137 -2.772170 -0.000001 -0.000021 -0.000000 -0.000001 -0.000000 -9.532594 0.000276 0.000228 90.215891 16.203326 -16.406782 -3.700075 0.000327 0.003971 92.175466 11.376250 -11.716098 -2.950036 0.000343 -0.001810 93.417747 11.126985 -11.799160 -2.946626 0.000003 -0.000153 0.000001 -0.000000 0.000001 -9.103710 -0.042767 -1.864878 88.039581 18.494320 -17.838567 -3.379342 0.000302 -0.000819 92.020345 10.102289 -10.481024 -2.889741 0.000364 0.000662 97.982363 6.644446 -7.690574 -2.638807 -0.000017 0.000942 -0.000002 -0.000001 -0.000001 -8.076748 -0.486392 -3.806048 81.338483 18.116252 -15.467643 -3.600027 0.000253 -0.003535 85.514515 9.455277 -8.412458 -2.100017 0.000322 -0.005490 89.702725 6.060996 -5.810162 -2.115781 -0.000027 -0.003684 0.000006 -0.000001 -0.000007 4.570446 11.014691 -2.160851 -0.000018 0.000010 -0.000021 10.592415 -0.524468 -2.232368 72.221157 -19.923612 14.602975 27.841822 0.000045 -0.000188 102.460590 -76.059142 88.479828 28.328825 -0.000029 0.000018 0.000022 -0.000088 -0.000000 2.466214 -1.576081 2.681855 1.194884 160.856884 -84.791662 3.217848 -1.871793 1.916402 167.198974 -24.213256 29.811211 2.656103 -1.528675 1.514495 144.506722 -25.409168 59.985228 2.020895 -1.154054 1.115142 0.000004 0.000006 0.000004 9.109391 -0.517863 2.259759 89.686879 -21.130978 21.005524 3.700041 0.000152 -0.000444 85.912585 -15.276164 14.250839 2.850050 0.000187 0.000212 84.664307 -12.062858 10.994451 2.774888 -0.000030 -0.000022 -0.000001 0.000000 -0.000000 9.533476 0.000195 -0.000068 88.574528 -21.032830 20.518042 3.700047 0.000181 -0.000373 89.131407 -12.969899 12.773724 2.950044 0.000175 -0.000217 90.481442 -11.098797 11.194768 2.952859 -0.000014 0.000065 0.000006 0.000001 -0.000000 9.104595 -0.042847 -1.865219 87.916884 -20.435967 19.722690 3.150076 0.000210 -0.000091 92.269312 -13.130996 13.658656 2.950035 0.000191 -0.000074 94.279130 -9.770969 10.527126 2.644317 0.000018 0.000057 0.000005 -0.000000 0.000000 8.077855 -0.486720 -3.806394 81.718658 -20.191762 18.039571 3.600009 0.000184 0.014574 80.870095 -16.237945 14.312322 2.100040 0.000189 0.007533 83.438663 -11.025972 10.262576 2.125520 0.000000 0.007518 -0.000002 0.000001 -0.000001 -8.207786 -6.751667 -1.599560 -0.077001 -0.000003 0.000080 -0.000002 -44.370110 0.345938 0.153719 -0.000000 -0.000000 0.000000 -44.423679 -3.043532 -0.076700 0.000000 -0.000002 -0.000006 -8.728667 10.710559 -0.000009 -0.000000 -0.000000 -0.000001 -0.000679 9.278123 0.000000 -0.000000 -0.000000 8.207792 -6.751710 -1.599556 -0.074518 -0.000003 0.000081 -0.000002 -44.370014 0.346960 0.148822 0.000002 0.000000 -0.000001 -44.423664 -3.044403 -0.074314 0.000000 -0.000002 -0.000004 -8.728671 10.710558 0.000007 -0.000000 -0.000000 0.000000 -0.000680 9.278137 -0.000000 0.000000 -0.000001 
